<?xml version="1.0" encoding="UTF-8"?>
<svg width="142px" height="135px" viewBox="0 0 142 135" version="1.1" xmlns="http://www.w3.org/2000/svg" xmlns:xlink="http://www.w3.org/1999/xlink">
    <title>Shape</title>
    <g id="Page-1" stroke="none" stroke-width="1" fill="none" fill-rule="evenodd">
        <g id="logo" transform="translate(0.000000, -1.000000)" fill="#FFFFFF" fill-rule="nonzero">
            <path d="M121.81,69.77 C127.58,69.2 133.22,74.87 142.01,74.14 C132.43,77.95 125.75,72.17 121.1,75.83 C129.47,75.94 129.81,80.51 138.81,81.38 C130.48,83.35 125.47,78.86 120.29,83.39 C127.52,82.74 127.45,86.58 134.65,86.88 C134.65,86.88 123.84,90.27 119.05,88.41 C114.19,86.51 111.01,81.7 101.13,83.93 C101.31,82.36 101.64,80.78 102.17,79.29 C103.22,76.3 105.07,75.63 106.66,75.38 C107.78,75.2 108.49,75.31 108.8,75.75 C109.14,76.23 109.26,77.09 109.37,77.87 C109.5,78.7 110.37,78.83 110.87,78.41 C111.1,78.21 111.45,77.98 111.91,77.2 C112.41,76.34 112.65,75.42 112.71,74.45 C112.88,71.83 110.37,70.34 109.08,69.74 C108.59,66.26 105.17,65.28 103.43,64.92 C97.43,63.69 93.73,65.51 90.6,67.5 C87.87,69.25 86.38,69.99 84.44,69.08 C91.58,67.38 100.33,56.56 103.74,54.97 C106.69,53.61 109.84,54.62 115.73,56.58 C115.73,56.58 109.14,52.69 103.87,52.39 C98.67,52.09 91.35,66.36 82.71,67.9 C82.7,67.88 82.68,67.87 82.66,67.85 C92.93,61.07 97.11,45.82 106.37,49.53 C114.73,52.87 127.13,58.48 136.88,60.61 C131.6,63.1 126.04,58.96 121.62,63.61 C128.28,61.96 132.27,68.36 141.64,66.88 C132.3,71.52 126.55,65.6 121.81,69.77 Z M117.27,25.99 C117.27,25.99 118.76,24.76 118.76,24.76 C126.77,34.16 132.27,45.76 134.16,58.53 C133.47,58.35 132.77,58.14 132.11,57.92 C130.14,45.86 124.87,34.9 117.27,25.99 Z M114.43,23.09 C113.97,22.66 113.94,21.94 114.37,21.48 C114.78,21.03 115.49,21.03 115.94,21.45 C116.4,21.88 116.43,22.59 116.01,23.04 C115.59,23.49 114.87,23.5 114.43,23.09 Z M111.72,20.59 C111.26,20.16 111.22,19.44 111.66,18.98 C112.07,18.53 112.78,18.52 113.23,18.94 C113.68,19.36 113.73,20.09 113.31,20.54 C112.89,20.99 112.16,20.99 111.72,20.59 Z M67.45,2.93 C56.51,2.93 46.2,5.63 37.13,10.38 C36.6,9.92 36.07,9.46 35.58,9.01 C45.08,3.9 55.93,0.99 67.45,0.99 C83.58,0.99 98.4,6.7 110.01,16.19 C110.01,16.19 108.74,17.65 108.74,17.65 C97.47,8.46 83.09,2.93 67.45,2.93 Z M57.35,12.5 C57.35,12.5 57.61,10.64 57.61,10.64 C57.61,10.64 58.21,10.51 58.21,10.51 C58.21,10.51 59.14,14.69 59.14,14.69 C59.14,14.69 58.54,14.82 58.54,14.82 C58.54,14.82 57.52,13.27 57.52,13.27 C57.52,13.27 54.45,13.95 54.45,13.95 C54.45,13.95 55.54,18.88 55.54,18.88 C55.54,18.88 57.69,19.1 57.69,19.1 C57.69,19.1 57.8,19.58 57.8,19.58 C57.8,19.58 52.38,20.79 52.38,20.79 C52.38,20.79 52.27,20.31 52.27,20.31 C52.27,20.31 53.75,19.28 53.75,19.28 C53.75,19.28 51.42,8.83 51.42,8.83 C51.42,8.83 49.65,8.53 49.65,8.53 C49.65,8.53 49.55,8.05 49.55,8.05 C49.55,8.05 58.21,6.12 58.21,6.12 C58.21,6.12 58.83,8.89 58.83,8.89 C58.83,8.89 58.2,9.03 58.2,9.03 C58.2,9.03 56.85,7.22 56.85,7.22 C56.85,7.22 53.13,8.05 53.13,8.05 C53.13,8.05 54.28,13.19 54.28,13.19 C54.28,13.19 57.35,12.5 57.35,12.5 Z M75.44,18.42 C75.44,18.42 75.42,18.9 75.42,18.9 C75.42,18.9 72.3,18.8 72.3,18.8 C72.3,18.8 68.23,12.43 68.23,12.43 C68.23,12.43 67.53,12.41 67.53,12.41 C67.53,12.41 67.36,17.45 67.36,17.45 C67.36,17.45 68.99,18.19 68.99,18.19 C68.99,18.19 68.98,18.68 68.98,18.68 C68.98,18.68 63.82,18.5 63.82,18.5 C63.82,18.5 63.84,18.02 63.84,18.02 C63.84,18.02 65.52,17.39 65.52,17.39 C65.52,17.39 65.89,6.69 65.89,6.69 C65.89,6.69 64.25,5.95 64.25,5.95 C64.25,5.95 64.27,5.46 64.27,5.46 C64.27,5.46 69.56,5.65 69.56,5.65 C71.13,5.7 71.71,5.88 72.41,6.47 C73.11,7.06 73.48,7.91 73.44,8.91 C73.38,10.67 72.16,11.9 70.22,12.15 C70.22,12.15 73.96,17.66 73.96,17.66 C73.96,17.66 75.44,18.42 75.44,18.42 Z M71.38,9.02 C71.44,7.41 70.61,6.46 69.11,6.41 C69.11,6.41 67.74,6.37 67.74,6.37 C67.74,6.37 67.56,11.63 67.56,11.63 C67.56,11.63 68.87,11.67 68.87,11.67 C70.31,11.72 71.33,10.64 71.38,9.02 Z M81.79,7.21 C81.79,7.21 86.76,8.59 86.76,8.59 C86.76,8.59 86.63,9.06 86.63,9.06 C86.63,9.06 84.85,9.27 84.85,9.27 C84.85,9.27 81.99,19.58 81.99,19.58 C81.99,19.58 83.41,20.69 83.41,20.69 C83.41,20.69 83.28,21.16 83.28,21.16 C83.28,21.16 78.31,19.78 78.31,19.78 C78.31,19.78 78.44,19.31 78.44,19.31 C78.44,19.31 80.22,19.09 80.22,19.09 C80.22,19.09 83.08,8.78 83.08,8.78 C83.08,8.78 81.66,7.68 81.66,7.68 C81.66,7.68 81.79,7.21 81.79,7.21 Z M67.45,22.8 C63.13,22.8 58.96,23.42 55.01,24.54 C54.46,24.12 53.87,23.66 53.33,23.25 C57.79,21.85 62.53,21.1 67.45,21.1 C86.96,21.1 103.76,32.98 111,49.89 C110.24,49.6 109.43,49.29 108.73,49 C101.41,33.53 85.66,22.8 67.45,22.8 Z M111.59,23.47 C114.15,25.97 114.04,29.42 111.31,32.22 C108.37,35.23 104.56,35.52 101.9,32.92 C99.36,30.43 99.47,26.99 102.17,24.22 C105.13,21.19 108.97,20.9 111.59,23.47 Z M102.66,32.43 C104.4,34.14 107.09,33.62 109.59,31.06 C112.16,28.43 112.63,25.72 110.82,23.95 C109.05,22.21 106.5,22.73 103.96,25.33 C101.39,27.96 100.88,30.69 102.66,32.43 Z M92.92,18.23 C92.33,17.18 92.17,16.73 92.14,16.05 C92.09,15.44 92.23,14.94 92.54,14.37 C93.52,12.57 95.5,12.06 97.46,13.13 C97.75,13.29 98.24,13.62 98.7,13.93 C99.06,14.2 99.33,14.41 99.52,14.58 C99.52,14.58 100.14,15.12 100.14,15.12 C100.14,15.12 100.37,15.31 100.37,15.31 C100.37,15.31 99.05,17.75 99.05,17.75 C99.05,17.75 98.41,17.41 98.41,17.41 C98.41,17.41 98.71,14.89 98.71,14.89 C98.71,14.89 98.58,14.8 98.58,14.8 C98.15,14.52 98.06,14.45 97.75,14.28 C96.03,13.35 94.92,13.44 94.3,14.57 C93.87,15.36 93.94,15.85 94.74,17.26 C94.74,17.26 95.92,19.39 95.92,19.39 C96.63,20.69 96.73,20.88 96.78,21.53 C96.86,22.19 96.71,22.89 96.36,23.54 C95.32,25.45 93.22,25.89 91,24.69 C90.45,24.39 89.71,23.86 89.07,23.28 C89.07,23.28 88.23,22.54 88.23,22.54 C88.23,22.54 88.08,22.39 88.08,22.39 C88.08,22.39 89.45,19.86 89.45,19.86 C89.45,19.86 90.07,20.2 90.07,20.2 C90.07,20.2 89.76,22.79 89.76,22.79 C90.15,23.09 90.5,23.3 90.97,23.56 C92.57,24.42 93.75,24.24 94.4,23.04 C94.86,22.2 94.8,21.65 94.02,20.23 C94.02,20.23 92.92,18.23 92.92,18.23 Z M110.85,44.04 C110.85,44.04 108.33,39.53 108.33,39.53 C108.33,39.53 108.76,39.29 108.76,39.29 C108.76,39.29 110.16,40.41 110.16,40.41 C110.16,40.41 119.5,35.19 119.5,35.19 C119.5,35.19 119.29,33.41 119.29,33.41 C119.29,33.41 119.71,33.17 119.71,33.17 C119.71,33.17 122.3,37.8 122.3,37.8 C123.06,39.16 123.21,39.75 123.07,40.66 C122.92,41.57 122.38,42.32 121.51,42.81 C119.98,43.67 118.29,43.26 117.08,41.72 C117.08,41.72 114.3,47.78 114.3,47.78 C114.3,47.78 114.42,49.44 114.42,49.44 C114.42,49.44 113.99,49.68 113.99,49.68 C113.99,49.68 112.47,46.95 112.47,46.95 C112.47,46.95 115.81,40.17 115.81,40.17 C115.81,40.17 115.46,39.56 115.46,39.56 C115.46,39.56 111.06,42.02 111.06,42.02 C111.06,42.02 111.27,43.8 111.27,43.8 C111.27,43.8 110.85,44.04 110.85,44.04 Z M116.78,40.32 C117.49,41.58 118.94,41.89 120.36,41.1 C121.76,40.32 122.14,39.12 121.4,37.8 C121.4,37.8 120.74,36.61 120.74,36.61 C120.74,36.61 116.15,39.17 116.15,39.17 C116.15,39.17 116.78,40.32 116.78,40.32 Z M64.37,33.7 C70.08,38.41 69.85,45.03 72.34,51.99 C74.83,58.94 77.34,70.12 83.04,71.82 C91.58,74.37 92.73,64.53 102.74,66.39 C103.62,66.56 108.35,67.28 107.71,70.69 C109.67,71.28 112.58,72.61 110.89,76.41 C110.74,76.75 110.36,76.66 110.33,76.33 C110.28,75.67 109.9,74.43 108.62,74.12 C107.87,73.94 102.14,73.49 100.12,78.77 C97.67,85.17 96.59,87.78 92.93,91.94 C89.75,95.56 86.2,97.35 81.47,99.89 C77.24,102.15 73.56,107.22 74.09,112.22 C72.48,109.83 71.41,106.66 72.88,103.81 C73.76,102.08 76.14,100.5 74.38,97.62 C74,100.87 71.72,101.27 68.47,103.74 C67.25,104.68 66.35,106.11 66.25,107.07 C65.45,104.54 66.96,103.11 68.58,101.68 C70.92,99.61 71.74,94.8 68.7,92.51 C70.12,97.57 67.12,99.19 64.2,101.03 C61.95,102.45 58.85,104.22 60.33,108.62 C56.89,104.69 59.14,102.53 61.1,100.83 C63.24,98.97 64.99,95.89 62.66,92.68 C62.84,96.82 61.57,97.21 57.57,99.37 C55.43,100.53 54.15,102.61 54.14,104.48 C53.31,99.92 54.83,98.53 56.25,97.12 C57.7,95.69 58.71,93.08 55.79,88.43 C56.55,91.9 55.44,93.93 52.48,96.47 C49.42,99.09 48.32,100.76 49.62,106.04 C47.36,102.6 47.25,99.96 48.96,96.7 C51,92.8 53.17,92.34 50.04,83.53 C46.89,74.72 49.69,68.59 42.99,61.84 C38.92,57.74 35.27,55.32 30.06,51.98 C17.55,43.96 16.19,38 16.19,38 C23.38,44.3 27.48,41.41 33.1,46.19 C31.36,38.21 18.72,39.36 14.01,26.93 C20.52,35.06 27.94,32.92 32.47,36.58 C31.52,29.34 15.99,30.05 15.33,15.96 C21.65,27.1 28.02,23.01 32.87,28.3 C32.27,21.49 21.23,20.43 19.55,7.39 C25.34,17.23 31.13,14.66 35.41,21.32 C35.39,14.83 25.88,9.97 26.17,1.89 C31.06,7.59 37.05,12.34 41.63,16.17 C46.21,20.01 58.67,28.99 64.37,33.7 Z M56.51,37.56 C60.28,41.49 59.97,46.18 61.18,51.92 C62.4,57.67 64.34,60.07 68.41,63.57 C67.01,60.55 65.19,54.79 64.07,50.06 C62.32,42.57 62.04,39.76 58.63,36.92 C55.22,34.06 48.29,30.01 43.1,25.23 C48.62,31.61 52.41,33.3 56.51,37.56 Z M124.66,94.5 C124.66,94.5 125.08,94.75 125.08,94.75 C125.08,94.75 122.55,99.03 122.55,99.03 C122.55,99.03 122.13,98.78 122.13,98.78 C122.13,98.78 122.27,97.12 122.27,97.12 C122.27,97.12 118.07,96.27 118.07,96.27 C118.07,96.27 115.99,99.81 115.99,99.81 C115.99,99.81 118.71,103.17 118.71,103.17 C118.71,103.17 120.09,102.25 120.09,102.25 C120.09,102.25 120.51,102.5 120.51,102.5 C120.51,102.5 118.33,106.19 118.33,106.19 C118.33,106.19 117.91,105.94 117.91,105.94 C117.91,105.94 118.05,104.28 118.05,104.28 C118.05,104.28 110.28,93.98 110.28,93.98 C110.28,93.98 110.83,93.04 110.83,93.04 C110.83,93.04 123.29,95.4 123.29,95.4 C123.29,95.4 124.66,94.5 124.66,94.5 Z M113.97,95.46 C113.12,95.28 112.8,95.2 112.18,95.04 C112.18,95.04 115.48,99.17 115.48,99.17 C115.48,99.17 117.26,96.15 117.26,96.15 C117.26,96.15 113.97,95.46 113.97,95.46 Z M96.39,110.3 C96.39,110.3 96.06,109.94 96.06,109.94 C96.06,109.94 98.46,107.78 98.46,107.78 C98.46,107.78 110.07,110 110.07,110 C110.07,110 104.54,103.87 104.54,103.87 C104.54,103.87 102.85,104.47 102.85,104.47 C102.85,104.47 102.52,104.11 102.52,104.11 C102.52,104.11 105.78,101.17 105.78,101.17 C105.78,101.17 106.11,101.54 106.11,101.54 C106.11,101.54 105.33,103.16 105.33,103.16 C105.33,103.16 113.4,112.13 113.4,112.13 C113.4,112.13 112.97,112.52 112.97,112.52 C112.97,112.52 99.67,109.87 99.67,109.87 C99.67,109.87 106.03,116.94 106.03,116.94 C106.03,116.94 107.72,116.33 107.72,116.33 C107.72,116.33 108.05,116.7 108.05,116.7 C108.05,116.7 104.79,119.63 104.79,119.63 C104.79,119.63 104.47,119.27 104.47,119.27 C104.47,119.27 105.24,117.64 105.24,117.64 C105.24,117.64 98.08,109.7 98.08,109.7 C98.08,109.7 96.39,110.3 96.39,110.3 Z M83.12,116.76 C83.12,116.76 82.92,116.31 82.92,116.31 C82.92,116.31 87.76,114.15 87.76,114.15 C89.19,113.5 89.78,113.41 90.68,113.63 C91.57,113.85 92.27,114.46 92.68,115.37 C93.39,116.98 92.84,118.62 91.21,119.69 C91.21,119.69 96.99,123 96.99,123 C96.99,123 98.65,123.03 98.65,123.03 C98.65,123.03 98.85,123.47 98.85,123.47 C98.85,123.47 96,124.75 96,124.75 C96,124.75 89.55,120.82 89.55,120.82 C89.55,120.82 88.91,121.11 88.91,121.11 C88.91,121.11 90.97,125.72 90.97,125.72 C90.97,125.72 92.76,125.66 92.76,125.66 C92.76,125.66 92.96,126.11 92.96,126.11 C92.96,126.11 88.25,128.22 88.25,128.22 C88.25,128.22 88.05,127.78 88.05,127.78 C88.05,127.78 89.29,126.47 89.29,126.47 C89.29,126.47 84.92,116.7 84.92,116.7 C84.92,116.7 83.12,116.76 83.12,116.76 Z M88.59,120.4 C88.59,120.4 89.78,119.86 89.78,119.86 C91.1,119.27 91.54,117.85 90.87,116.37 C90.22,114.91 89.06,114.42 87.68,115.04 C87.68,115.04 86.44,115.6 86.44,115.6 C86.44,115.6 88.59,120.4 88.59,120.4 Z M73.42,131.26 C73.42,131.26 69.18,131.82 69.18,131.82 C69.18,131.82 69.12,131.34 69.12,131.34 C69.12,131.34 70.51,130.42 70.51,130.42 C70.51,130.42 73.82,117.95 73.82,117.95 C73.82,117.95 74.91,117.81 74.91,117.81 C74.91,117.81 80.73,129.07 80.73,129.07 C80.73,129.07 82.28,129.6 82.28,129.6 C82.28,129.6 82.34,130.09 82.34,130.09 C82.34,130.09 77.42,130.74 77.42,130.74 C77.42,130.74 77.35,130.25 77.35,130.25 C77.35,130.25 78.75,129.34 78.75,129.34 C78.75,129.34 76.83,125.51 76.83,125.51 C76.83,125.51 72.76,126.04 72.76,126.04 C72.76,126.04 71.79,130.26 71.79,130.26 C71.79,130.26 73.36,130.78 73.36,130.78 C73.36,130.78 73.42,131.26 73.42,131.26 Z M76.42,124.79 C76.42,124.79 74.93,121.77 74.93,121.77 C74.56,120.99 74.42,120.69 74.16,120.1 C74.16,120.1 72.95,125.25 72.95,125.25 C72.95,125.25 76.42,124.79 76.42,124.79 Z M59.81,125.65 C59.81,125.65 64.91,126.45 64.91,126.45 C64.91,126.45 64.84,126.93 64.84,126.93 C64.84,126.93 63.09,127.33 63.09,127.33 C63.09,127.33 62.53,130.97 62.53,130.97 C62.53,130.97 62.28,131.01 62.28,131.01 C60.61,131.2 59.38,131.21 58.07,131 C55.94,130.67 54.58,129.91 53.69,128.52 C52.81,127.15 52.51,125.54 52.8,123.67 C53.14,121.48 54.16,119.76 55.71,118.74 C57.12,117.79 58.73,117.5 60.91,117.84 C62.22,118.05 63.06,118.28 64.38,118.82 C64.38,118.82 64.6,118.92 64.6,118.92 C64.6,118.92 64.15,121.8 64.15,121.8 C64.15,121.8 63.42,121.68 63.42,121.68 C63.42,121.68 62.94,119.17 62.94,119.17 C62.49,119 62.05,118.9 61.42,118.8 C59.39,118.48 58.11,118.69 56.98,119.59 C55.79,120.51 55.06,121.88 54.76,123.8 C54.21,127.29 55.72,129.57 58.93,130.07 C59.62,130.18 60.36,130.25 60.78,130.24 C60.78,130.24 61.28,127.05 61.28,127.05 C61.28,127.05 59.74,126.14 59.74,126.14 C59.74,126.14 59.81,125.65 59.81,125.65 Z M67.45,114.19 C86.72,114.19 103.24,102.17 109.92,85.23 C110.47,85.37 111,85.57 111.51,85.85 C104.57,103.42 87.44,115.9 67.45,115.9 C43.27,115.9 23.29,97.68 20.44,74.24 C20.44,74.24 22.16,74.19 22.16,74.19 C24.97,96.71 44.2,114.19 67.45,114.19 Z M25.43,50.63 C23.8,54.44 22.7,58.51 22.16,62.76 C22.16,62.76 20.45,62.69 20.45,62.69 C21.02,58.08 22.25,53.66 24.05,49.55 C24.51,49.92 24.98,50.28 25.43,50.63 Z M8.49,47.33 C8.49,47.33 8.7,49.12 8.7,49.12 C8.7,49.12 18.99,52.03 18.99,52.03 C18.99,52.03 20.1,50.61 20.1,50.61 C20.1,50.61 20.57,50.75 20.57,50.75 C20.57,50.75 18.16,59.29 18.16,59.29 C18.16,59.29 15.43,58.52 15.43,58.52 C15.43,58.52 15.61,57.9 15.61,57.9 C15.61,57.9 17.83,57.57 17.83,57.57 C17.83,57.57 18.87,53.9 18.87,53.9 C18.87,53.9 13.81,52.47 13.81,52.47 C13.81,52.47 12.95,55.5 12.95,55.5 C12.95,55.5 14.46,56.62 14.46,56.62 C14.46,56.62 14.3,57.21 14.3,57.21 C14.3,57.21 10.18,56.04 10.18,56.04 C10.18,56.04 10.34,55.46 10.34,55.46 C10.34,55.46 12.2,55.29 12.2,55.29 C12.2,55.29 13.05,52.26 13.05,52.26 C13.05,52.26 8.2,50.89 8.2,50.89 C8.2,50.89 6.98,52.68 6.98,52.68 C6.98,52.68 6.51,52.55 6.51,52.55 C6.51,52.55 8.02,47.2 8.02,47.2 C8.02,47.2 8.49,47.33 8.49,47.33 Z M10.51,62.7 C14.73,62.63 17.67,65.12 17.73,68.8 C17.78,72.38 15.28,74.75 11.37,74.81 C7.17,74.88 4.26,72.4 4.2,68.69 C4.14,65.13 6.64,62.76 10.51,62.7 Z M10.97,72.78 C14.64,72.73 16.89,71.12 16.84,68.6 C16.8,66.11 14.63,64.68 11,64.74 C7.32,64.8 5.04,66.38 5.08,68.87 C5.12,71.31 7.39,72.84 10.97,72.78 Z M21.07,67.69 C20.46,67.69 19.96,67.15 19.97,66.55 C19.97,65.92 20.47,65.41 21.1,65.42 C21.72,65.42 22.2,65.94 22.19,66.55 C22.19,67.17 21.69,67.7 21.07,67.69 Z M21.06,71.37 C20.45,71.37 19.95,70.85 19.96,70.25 C19.96,69.62 20.46,69.1 21.09,69.11 C21.71,69.11 22.19,69.63 22.18,70.25 C22.18,70.88 21.68,71.38 21.06,71.37 Z M38.58,124.55 C38.58,124.55 34.71,122.73 34.71,122.73 C34.71,122.73 34.91,122.29 34.91,122.29 C34.91,122.29 36.59,122.27 36.59,122.27 C36.59,122.27 46.1,113.56 46.1,113.56 C46.1,113.56 47.09,114.03 47.09,114.03 C47.09,114.03 45.91,126.66 45.91,126.66 C45.91,126.66 46.93,127.94 46.93,127.94 C46.93,127.94 46.72,128.38 46.72,128.38 C46.72,128.38 42.23,126.27 42.23,126.27 C42.23,126.27 42.43,125.82 42.43,125.82 C42.43,125.82 44.1,125.81 44.1,125.81 C44.1,125.81 44.55,121.54 44.55,121.54 C44.55,121.54 40.83,119.8 40.83,119.8 C40.83,119.8 37.75,122.82 37.75,122.82 C37.75,122.82 38.79,124.11 38.79,124.11 C38.79,124.11 38.58,124.55 38.58,124.55 Z M44.59,120.72 C44.59,120.72 44.97,117.38 44.97,117.38 C45.07,116.52 45.12,116.19 45.23,115.55 C45.23,115.55 41.42,119.23 41.42,119.23 C41.42,119.23 44.59,120.72 44.59,120.72 Z M29.3,118.71 C29.3,118.71 24.75,114.88 24.75,114.88 C24.75,114.88 25.06,114.51 25.06,114.51 C25.06,114.51 27.07,115.31 27.07,115.31 C27.07,115.31 34.15,106.89 34.15,106.89 C34.15,106.89 31.89,104.99 31.89,104.99 C31.89,104.99 29.7,106.19 29.7,106.19 C29.7,106.19 29.18,105.75 29.18,105.75 C29.18,105.75 31.24,103.3 31.24,103.3 C31.24,103.3 39.53,110.27 39.53,110.27 C39.53,110.27 37.47,112.73 37.47,112.73 C37.47,112.73 36.93,112.28 36.93,112.28 C36.93,112.28 37.75,109.93 37.75,109.93 C37.75,109.93 35.55,108.08 35.55,108.08 C35.55,108.08 28.48,116.49 28.48,116.49 C28.48,116.49 29.61,118.34 29.61,118.34 C29.61,118.34 29.3,118.71 29.3,118.71 Z M19.56,104.81 C19.56,104.81 19.91,105.35 19.91,105.35 C19.91,105.35 17.23,106.76 17.23,106.76 C17.23,106.76 12.1,98.95 12.1,98.95 C12.1,98.95 12.51,98.68 12.51,98.68 C12.51,98.68 13.99,99.69 13.99,99.69 C13.99,99.69 22.93,93.81 22.93,93.81 C22.93,93.81 22.59,92.05 22.59,92.05 C22.59,92.05 23,91.78 23,91.78 C23,91.78 28.09,99.53 28.09,99.53 C28.09,99.53 25.64,101.14 25.64,101.14 C25.64,101.14 25.28,100.6 25.28,100.6 C25.28,100.6 26.58,98.65 26.58,98.65 C26.58,98.65 24.27,95.14 24.27,95.14 C24.27,95.14 19.87,98.03 19.87,98.03 C19.87,98.03 21.82,100.99 21.82,100.99 C21.82,100.99 23.65,100.58 23.65,100.58 C23.65,100.58 23.98,101.08 23.98,101.08 C23.98,101.08 20.41,103.44 20.41,103.44 C20.41,103.44 20.07,102.93 20.07,102.93 C20.07,102.93 21.16,101.42 21.16,101.42 C21.16,101.42 19.22,98.46 19.22,98.46 C19.22,98.46 14.76,101.39 14.76,101.39 C14.76,101.39 17.13,105 17.13,105 C17.13,105 19.56,104.81 19.56,104.81 Z M7.93,85.25 C7.93,85.25 7.77,87.04 7.77,87.04 C7.77,87.04 7.31,87.19 7.31,87.19 C7.31,87.19 5.76,82.26 5.76,82.26 C5.76,82.26 6.23,82.11 6.23,82.11 C6.23,82.11 7.38,83.49 7.38,83.49 C7.38,83.49 17.58,80.29 17.58,80.29 C17.58,80.29 17.74,78.5 17.74,78.5 C17.74,78.5 18.2,78.35 18.2,78.35 C18.2,78.35 19.79,83.41 19.79,83.41 C20.26,84.9 20.28,85.51 19.96,86.37 C19.64,87.23 18.95,87.86 18,88.15 C16.32,88.68 14.76,87.94 13.88,86.19 C13.88,86.19 9.93,91.55 9.93,91.55 C9.93,91.55 9.71,93.2 9.71,93.2 C9.71,93.2 9.24,93.35 9.24,93.35 C9.24,93.35 8.3,90.36 8.3,90.36 C8.3,90.36 12.95,84.41 12.95,84.41 C12.95,84.41 12.74,83.74 12.74,83.74 C12.74,83.74 7.93,85.25 7.93,85.25 Z M13.88,84.75 C14.31,86.13 15.67,86.73 17.22,86.25 C18.75,85.77 19.36,84.67 18.91,83.23 C18.91,83.23 18.5,81.93 18.5,81.93 C18.5,81.93 13.49,83.5 13.49,83.5 C13.49,83.5 13.88,84.75 13.88,84.75 Z M1.93,68.5 C1.93,104.65 31.32,134.06 67.45,134.06 C96.21,134.06 120.7,115.42 129.49,89.57 C130.21,89.43 131,89.25 131.69,89.06 C122.98,116.26 97.48,136 67.45,136 C30.25,136 0,105.72 0,68.5 C0,53.59 4.85,39.8 13.06,28.62 C13.37,29.29 13.7,29.95 14.02,30.58 C6.41,41.29 1.93,54.38 1.93,68.5 Z" id="Shape"></path>
        </g>
    </g>
</svg>